<?xml version="1.0" encoding="UTF-8"?>
<!DOCTYPE svg PUBLIC "-//W3C//DTD SVG 1.1//EN" "http://www.w3.org/Graphics/SVG/1.1/DTD/svg11.dtd">
<svg xmlns="http://www.w3.org/2000/svg" xmlns:xlink="http://www.w3.org/1999/xlink" version="1.1" viewBox="-0.5 180 559 202">
<defs/>
<g><g data-cell-id="0"><g data-cell-id="1"><g data-cell-id="fvZAjYL25cBGxry0IfGz-8"><g/><g data-cell-id="fvZAjYL25cBGxry0IfGz-3"><g>


<svg xmlns="http://www.w3.org/2000/svg" x="-0.5" y="-0.5" width="540" height="540" viewBox="0 0 24 24"><path fill="currentColor" stroke="rgb(0,0,0)" stroke-width="0" d="M3,10C2.76,10 2.55,10.09 2.41,10.25C2.27,10.4 2.21,10.62 2.24,10.86L2.74,13.85C2.82,14.5 3.4,15 4,15H7C7.64,15 8.36,14.44 8.5,13.82L9.56,10.63C9.6,10.5 9.57,10.31 9.5,10.19C9.39,10.07 9.22,10 9,10H3M7,17H4C2.38,17 0.96,15.74 0.76,14.14L0.26,11.15C0.15,10.3 0.39,9.5 0.91,8.92C1.43,8.34 2.19,8 3,8H9C9.83,8 10.58,8.35 11.06,8.96C11.17,9.11 11.27,9.27 11.35,9.45C11.78,9.36 12.22,9.36 12.64,9.45C12.72,9.27 12.82,9.11 12.94,8.96C13.41,8.35 14.16,8 15,8H21C21.81,8 22.57,8.34 23.09,8.92C23.6,9.5 23.84,10.3 23.74,11.11L23.23,14.18C23.04,15.74 21.61,17 20,17H17C15.44,17 13.92,15.81 13.54,14.3L12.64,11.59C12.26,11.31 11.73,11.31 11.35,11.59L10.43,14.37C10.07,15.82 8.56,17 7,17M15,10C14.78,10 14.61,10.07 14.5,10.19C14.42,10.31 14.4,10.5 14.45,10.7L15.46,13.75C15.64,14.44 16.36,15 17,15H20C20.59,15 21.18,14.5 21.25,13.89L21.76,10.82C21.79,10.62 21.73,10.4 21.59,10.25C21.45,10.09 21.24,10 21,10H15Z"/></svg>


</g></g></g><g data-cell-id="fvZAjYL25cBGxry0IfGz-9"><g>
<path d="M 389 240 Q 389 240 449 300" stroke="currentColor" stroke-width="10" stroke-miterlimit="10" pointer-events="stroke"/></g></g><g data-cell-id="fvZAjYL25cBGxry0IfGz-10"><g><path d="M 409 270 L 449 220" fill="none" stroke="currentColor" stroke-width="10" stroke-miterlimit="10" pointer-events="stroke"/></g></g><g data-cell-id="fvZAjYL25cBGxry0IfGz-11"><g><path d="M 322 260 L 413 264" fill="none" stroke="currentColor" stroke-width="10" stroke-miterlimit="10" pointer-events="stroke"/></g></g><g data-cell-id="fvZAjYL25cBGxry0IfGz-12"><g><path d="M 389 240 Q 389 240 359 220" fill="none" stroke="currentColor" stroke-width="10" stroke-miterlimit="10" pointer-events="stroke"/></g></g><g data-cell-id="fvZAjYL25cBGxry0IfGz-13"><g><path d="M 409 270 L 339 310" fill="none" stroke="currentColor" stroke-width="10" stroke-miterlimit="10" pointer-events="stroke"/></g></g><g data-cell-id="fvZAjYL25cBGxry0IfGz-14"><g><path d="M 499 320 L 449 300 L 459 340" fill="none" stroke="currentColor" stroke-width="10" stroke-miterlimit="10" pointer-events="stroke"/></g></g></g></g></g></svg>
